# File produced by Open Asset Import Library (http://www.assimp.sf.net)
# (assimp v5.0.1588609223)

mtllib result.mtl

# 4 vertex positions
v  0 -0.064999998 -0.1
v  0 0.064999998 0
v  0.086602539 -0.064999998 0.050000001
v  -0.086602539 -0.064999998 0.050000001

# 12 UV coordinates
vt 1.2850302e-08 1 0
vt 3.7356834e-08 0.51363051 0
vt 0.43618989 0.72879034 0
vt -2.2105015e-08 0.51363051 0
vt 3.5704957e-08 0 0
vt 0.44481707 0.25681531 0
vt 0.44481713 0 0
vt 0.85785609 0.25681525 0
vt 0.4448171 0.51363045 0
vt 0.43618986 1 0
vt 0.43618989 0.51363045 0
vt 0.87237972 0.72879028 0

# 4 vertex normals
vn 0.8082844 0.35899305 -0.46669099
vn 0 -1 0
vn 0 0.35901257 0.93333274
vn -0.8082844 0.35899305 -0.46669099

# Mesh 'Cone' with 4 faces
g Cone
usemtl Material.001
f  1/1/1 2/2/1 3/3/1
f  1/4/2 3/5/2 4/6/2
f  3/7/3 2/8/3 4/9/3
f  4/10/4 2/11/4 1/12/4

